<svg width="24" height="24" viewBox="0 0 24 24" fill="none" xmlns="http://www.w3.org/2000/svg">
<rect width="24" height="24" rx="12" fill="#F5F7F2"/>
<g clip-path="url(#clip0_2246_17103)">
<path d="M11.9998 7.62654C13.5228 7.62654 13.7031 7.63322 14.3021 7.65994C14.8587 7.68443 15.1593 7.77795 15.3597 7.85588C15.6246 7.9583 15.8161 8.08299 16.0143 8.28115C16.2147 8.48154 16.3371 8.6708 16.4396 8.93576C16.5175 9.13615 16.611 9.43896 16.6355 9.99338C16.6622 10.5945 16.6689 10.7749 16.6689 12.2956C16.6689 13.8186 16.6622 13.999 16.6355 14.5979C16.611 15.1545 16.5175 15.4551 16.4396 15.6555C16.3371 15.9205 16.2125 16.112 16.0143 16.3101C15.8139 16.5105 15.6246 16.633 15.3597 16.7354C15.1593 16.8133 14.8565 16.9069 14.3021 16.9313C13.7009 16.9581 13.5205 16.9647 11.9998 16.9647C10.4768 16.9647 10.2965 16.9581 9.69754 16.9313C9.1409 16.9069 8.84031 16.8133 8.63992 16.7354C8.37496 16.633 8.18348 16.5083 7.98531 16.3101C7.78492 16.1097 7.66246 15.9205 7.56004 15.6555C7.48211 15.4551 7.38859 15.1523 7.3641 14.5979C7.33738 13.9967 7.3307 13.8164 7.3307 12.2956C7.3307 10.7727 7.33738 10.5923 7.3641 9.99338C7.38859 9.43674 7.48211 9.13615 7.56004 8.93576C7.66246 8.6708 7.78715 8.47932 7.98531 8.28115C8.1857 8.08076 8.37496 7.9583 8.63992 7.85588C8.84031 7.77795 9.14312 7.68443 9.69754 7.65994C10.2965 7.63322 10.4768 7.62654 11.9998 7.62654ZM11.9998 6.6001C10.4523 6.6001 10.2586 6.60678 9.65078 6.6335C9.04516 6.66021 8.62879 6.75818 8.26809 6.89846C7.8918 7.04541 7.5734 7.23912 7.25723 7.55752C6.93883 7.87369 6.74512 8.19209 6.59816 8.56615C6.45789 8.92908 6.35992 9.34322 6.3332 9.94885C6.30648 10.5589 6.2998 10.7526 6.2998 12.3001C6.2998 13.8476 6.30648 14.0413 6.3332 14.6491C6.35992 15.2547 6.45789 15.6711 6.59816 16.0318C6.74512 16.4081 6.93883 16.7265 7.25723 17.0427C7.5734 17.3588 7.8918 17.5548 8.26586 17.6995C8.62879 17.8398 9.04293 17.9378 9.64855 17.9645C10.2564 17.9912 10.4501 17.9979 11.9976 17.9979C13.545 17.9979 13.7387 17.9912 14.3466 17.9645C14.9522 17.9378 15.3686 17.8398 15.7293 17.6995C16.1034 17.5548 16.4218 17.3588 16.7379 17.0427C17.0541 16.7265 17.25 16.4081 17.3948 16.034C17.535 15.6711 17.633 15.257 17.6597 14.6513C17.6864 14.0435 17.6931 13.8498 17.6931 12.3023C17.6931 10.7549 17.6864 10.5612 17.6597 9.9533C17.633 9.34768 17.535 8.93131 17.3948 8.57061C17.2545 8.19209 17.0608 7.87369 16.7424 7.55752C16.4262 7.24135 16.1078 7.04541 15.7337 6.90068C15.3708 6.76041 14.9567 6.66244 14.3511 6.63572C13.741 6.60678 13.5473 6.6001 11.9998 6.6001Z" fill="#2A2F1E"/>
<path d="M11.9997 9.37207C10.3832 9.37207 9.07178 10.6835 9.07178 12.3C9.07178 13.9165 10.3832 15.2279 11.9997 15.2279C13.6162 15.2279 14.9276 13.9165 14.9276 12.3C14.9276 10.6835 13.6162 9.37207 11.9997 9.37207ZM11.9997 14.1993C10.951 14.1993 10.1004 13.3487 10.1004 12.3C10.1004 11.2513 10.951 10.4007 11.9997 10.4007C13.0484 10.4007 13.899 11.2513 13.899 12.3C13.899 13.3487 13.0484 14.1993 11.9997 14.1993Z" fill="#2A2F1E"/>
<path d="M15.727 9.25631C15.727 9.63483 15.4197 9.93987 15.0434 9.93987C14.6649 9.93987 14.3599 9.6326 14.3599 9.25631C14.3599 8.87779 14.6671 8.57275 15.0434 8.57275C15.4197 8.57275 15.727 8.88002 15.727 9.25631Z" fill="#2A2F1E"/>
</g>
<defs>
<clipPath id="clip0_2246_17103">
<rect width="11.4" height="11.4" fill="white" transform="translate(6.2998 6.6001)"/>
</clipPath>
</defs>
</svg>
