<svg width="24" height="24" viewBox="0 0 24 24" fill="none" xmlns="http://www.w3.org/2000/svg">
<rect width="24" height="24" rx="12" fill="#F5F7F2"/>
<path d="M16.0896 7.19995H7.90895C7.51707 7.19995 7.2002 7.50933 7.2002 7.89183V16.1062C7.2002 16.4887 7.51707 16.8 7.90895 16.8H16.0896C16.4814 16.8 16.8002 16.4887 16.8002 16.1081V7.89183C16.8002 7.50933 16.4814 7.19995 16.0896 7.19995ZM10.0483 15.3806H8.62332V10.7981H10.0483V15.3806ZM9.33582 10.1737C8.87832 10.1737 8.50895 9.80433 8.50895 9.3487C8.50895 8.89308 8.87832 8.5237 9.33582 8.5237C9.79145 8.5237 10.1608 8.89308 10.1608 9.3487C10.1608 9.80245 9.79145 10.1737 9.33582 10.1737ZM15.3808 15.3806H13.9577V13.1531C13.9577 12.6225 13.9483 11.9381 13.2171 11.9381C12.4764 11.9381 12.3639 12.5175 12.3639 13.1156V15.3806H10.9427V10.7981H12.3077V11.4243H12.3264C12.5158 11.0643 12.9808 10.6837 13.6727 10.6837C15.1146 10.6837 15.3808 11.6325 15.3808 12.8662V15.3806Z" fill="#2A2F1E"/>
</svg>
