<svg width="24" height="24" viewBox="0 0 24 24" fill="none" xmlns="http://www.w3.org/2000/svg">
<rect width="24" height="24" rx="12" fill="#F5F7F2"/>
<g clip-path="url(#clip0_2246_17112)">
<path d="M17.7608 9.09271C17.693 8.83741 17.5593 8.60442 17.3731 8.41703C17.1869 8.22965 16.9548 8.09446 16.6999 8.02498C15.7617 7.77271 12.0117 7.77271 12.0117 7.77271C12.0117 7.77271 8.26172 7.77271 7.32354 8.02498C7.06868 8.09446 6.83655 8.22965 6.65036 8.41703C6.46418 8.60442 6.33047 8.83741 6.26263 9.09271C6.01172 10.035 6.01172 12 6.01172 12C6.01172 12 6.01172 13.965 6.26263 14.9072C6.33047 15.1625 6.46418 15.3955 6.65036 15.5829C6.83655 15.7703 7.06868 15.9055 7.32354 15.975C8.26172 16.2273 12.0117 16.2273 12.0117 16.2273C12.0117 16.2273 15.7617 16.2273 16.6999 15.975C16.9548 15.9055 17.1869 15.7703 17.3731 15.5829C17.5593 15.3955 17.693 15.1625 17.7608 14.9072C18.0117 13.965 18.0117 12 18.0117 12C18.0117 12 18.0117 10.035 17.7608 9.09271Z" fill="#2A2F1E"/>
<path d="M10.7847 13.7845V10.2158L13.921 12.0001L10.7847 13.7845Z" fill="#F5F7F2"/>
</g>
<defs>
<clipPath id="clip0_2246_17112">
<rect width="12" height="12" fill="white" transform="translate(6 6)"/>
</clipPath>
</defs>
</svg>
